# xmcd CD database file
#
# Track frame offsets:
#	150
#	30853
#	63013
#	87390
#	112728
#	160050
#	206330
#	237538
#	283513
#
# Disc length: 4441 seconds
#
# Revision: 2
# Processed by: cddbd v1.4b41PL1 Copyright (c) Steve Scherf et al.
# Submitted via: Feurio! 1.50.2ß - http://www.feurio.com
#
DISCID=66115709
DTITLE=Eric Clapton - Further on up the road
DYEAR=1900
DGENRE=
TTITLE0=Layla
TTITLE1=Further on up the road
TTITLE2=Knocking on heavens door
TTITLE3=Can't find my way home
TTITLE4=Tell the truth
TTITLE5=Why does love got to be so sad
TTITLE6=Teach me to be a woman
TTITLE7=Badge
TTITLE8=Jam session
EXTD=
EXTT0=
EXTT1=
EXTT2=
EXTT3=
EXTT4=
EXTT5=
EXTT6=
EXTT7=
EXTT8=
PLAYORDER=
